<svg width="36" height="34" viewBox="0 0 36 34" fill="none" xmlns="http://www.w3.org/2000/svg">
<path d="M14.4004 15.2001C18.3769 15.2001 21.6004 11.9765 21.6004 8.00005C21.6004 4.0236 18.3769 0.800049 14.4004 0.800049C10.424 0.800049 7.20044 4.0236 7.20044 8.00005C7.20044 11.9765 10.424 15.2001 14.4004 15.2001Z" fill="#00CDDA"/>
<path d="M15.03 18.8182C10.116 18.6382 0 21.0862 0 26.0002V29.6002H17.172C12.726 24.6322 14.958 18.9982 15.03 18.8182Z" fill="#00CDDA"/>
<path fill-rule="evenodd" clip-rule="evenodd" d="M32.4 22.4C32.4 23.732 32.022 24.974 31.374 26.036L36 30.662L33.462 33.2L28.836 28.574C27.774 29.204 26.532 29.6 25.2 29.6C21.222 29.6 18 26.378 18 22.4C18 18.422 21.222 15.2 25.2 15.2C29.178 15.2 32.4 18.422 32.4 22.4ZM21.6 22.4C21.6 24.38 23.22 26 25.2 26C27.18 26 28.8 24.38 28.8 22.4C28.8 20.42 27.18 18.8 25.2 18.8C23.22 18.8 21.6 20.42 21.6 22.4Z" fill="#00CDDA"/>
</svg>
