<svg width="72" height="66" viewBox="0 0 72 66" fill="none" xmlns="http://www.w3.org/2000/svg">
<path d="M28.8009 29.1995C36.7538 29.1995 43.2008 22.7524 43.2008 14.7995C43.2008 6.84658 36.7538 0.399475 28.8009 0.399475C20.8479 0.399475 14.4009 6.84658 14.4009 14.7995C14.4009 22.7524 20.8479 29.1995 28.8009 29.1995Z" fill="black"/>
<path d="M30.06 36.4358C20.232 36.0758 0 40.9718 0 50.7997V57.9997H34.344C25.452 48.0638 29.916 36.7958 30.06 36.4358Z" fill="black"/>
<path fill-rule="evenodd" clip-rule="evenodd" d="M64.8 43.5993C64.8 46.2633 64.044 48.7473 62.748 50.8713L72 60.1233L66.924 65.1993L57.672 55.9473C55.548 57.2073 53.064 57.9993 50.4 57.9993C42.444 57.9993 36 51.5553 36 43.5993C36 35.6433 42.444 29.1993 50.4 29.1993C58.356 29.1993 64.8 35.6433 64.8 43.5993ZM43.2 43.5993C43.2 47.5593 46.44 50.7993 50.4 50.7993C54.36 50.7993 57.6 47.5593 57.6 43.5993C57.6 39.6393 54.36 36.3993 50.4 36.3993C46.44 36.3993 43.2 39.6393 43.2 43.5993Z" fill="black"/>
</svg>
