<svg width="72" height="73" viewBox="0 0 72 73" fill="none" xmlns="http://www.w3.org/2000/svg">
<path d="M36 0.59964C16.128 0.59964 0 16.7276 0 36.5996C0 56.4715 16.128 72.5995 36 72.5995H54V65.3995H36C20.376 65.3995 7.2 52.2235 7.2 36.5996C7.2 20.9756 20.376 7.79965 36 7.79965C51.624 7.79965 64.8 20.9756 64.8 36.5996V41.7477C64.8 44.5916 62.244 47.3995 59.4 47.3995C56.556 47.3995 54 44.5916 54 41.7477V36.5996C54 26.6636 45.936 18.5996 36 18.5996C26.064 18.5996 18 26.6636 18 36.5996C18 46.5355 26.064 54.5995 36 54.5995C40.968 54.5995 45.504 52.5835 48.744 49.3075C51.084 52.5115 55.116 54.5995 59.4 54.5995C66.492 54.5995 72 48.8395 72 41.7477V36.5996C72 16.7276 55.872 0.59964 36 0.59964ZM36 47.3995C30.024 47.3995 25.2 42.5756 25.2 36.5996C25.2 30.6236 30.024 25.7996 36 25.7996C41.976 25.7996 46.8 30.6236 46.8 36.5996C46.8 42.5756 41.976 47.3995 36 47.3995Z" fill="black"/>
</svg>
