<svg width="16" height="17" viewBox="0 0 16 17" fill="none" xmlns="http://www.w3.org/2000/svg">
<path d="M8 0.5C3.584 0.5 0 4.084 0 8.5C0 12.916 3.584 16.5 8 16.5C12.416 16.5 16 12.916 16 8.5C16 4.084 12.416 0.5 8 0.5ZM13.968 6.196L11.744 7.116C11.336 6.028 10.48 5.164 9.384 4.764L10.304 2.54C11.984 3.18 13.32 4.516 13.968 6.196ZM8 10.9C6.672 10.9 5.6 9.828 5.6 8.5C5.6 7.172 6.672 6.1 8 6.1C9.328 6.1 10.4 7.172 10.4 8.5C10.4 9.828 9.328 10.9 8 10.9ZM5.704 2.532L6.64 4.756C5.536 5.156 4.664 6.028 4.256 7.132L2.032 6.204C2.68 4.516 4.016 3.18 5.704 2.532ZM2.032 10.796L4.256 9.876C4.664 10.98 5.528 11.844 6.632 12.244L5.696 14.468C4.016 13.82 2.68 12.484 2.032 10.796ZM10.304 14.468L9.384 12.244C10.48 11.836 11.344 10.972 11.744 9.868L13.968 10.804C13.32 12.484 11.984 13.82 10.304 14.468Z" fill="#FF9900"/>
</svg>
