<svg width="16" height="15" viewBox="0 0 16 15" fill="none" xmlns="http://www.w3.org/2000/svg">
<path d="M7.57889 9.02431L5.05257 11.5001L7.57889 14.0264H-6.10352e-05V12.3422C-6.10352e-05 10.1022 4.48836 8.97379 6.73678 8.97379C7.00626 8.97379 7.25047 8.99063 7.57889 9.02431Z" fill="#0098DA"/>
<path d="M10.1052 3.92115C10.1052 5.78221 8.59783 7.28957 6.73678 7.28957C4.87573 7.28957 3.36836 5.78221 3.36836 3.92115C3.36836 2.0601 4.87573 0.552734 6.73678 0.552734C8.59783 0.552734 10.1052 2.0601 10.1052 3.92115Z" fill="#0098DA"/>
<path d="M7.57904 11.5L10.5011 14.4474L16.0001 8.89794L14.8211 7.71057L10.5011 12.0643L8.75799 10.3127L7.57904 11.5Z" fill="#0098DA"/>
</svg>
