<svg width="16" height="17" viewBox="0 0 16 17" fill="none" xmlns="http://www.w3.org/2000/svg">
<path fill-rule="evenodd" clip-rule="evenodd" d="M-0.00012207 3.41004V0.5C8.83281 0.5 15.9999 7.66712 15.9999 16.5H13.0899C13.0899 9.27123 7.22869 3.41004 -0.00012207 3.41004ZM-0.00012207 9.23011V6.32007C5.62458 6.32007 10.1799 10.8754 10.1799 16.5H7.26982C7.26982 12.4898 4.01017 9.23011 -0.00012207 9.23011ZM4.48319 14.2583C4.48319 15.4963 3.47956 16.4999 2.24153 16.4999C1.0035 16.4999 -0.00012207 15.4963 -0.00012207 14.2583C-0.00012207 13.0203 1.0035 12.0166 2.24153 12.0166C3.47956 12.0166 4.48319 13.0203 4.48319 14.2583Z" fill="#0098DA"/>
</svg>
