<svg width="72" height="66" viewBox="0 0 72 66" fill="none" xmlns="http://www.w3.org/2000/svg">
<path d="M72 0.600098L65.988 6.6121L60.012 0.600098L54 6.6121L47.988 0.600098L42.012 6.6121L36 0.600098L29.988 6.6121L24.012 0.600098L18 6.6121L11.988 0.600098L6.012 6.6121L0 0.600098V58.2001C0 62.1601 3.24 65.4001 7.2 65.4001H64.8C68.76 65.4001 72 62.1601 72 58.2001V0.600098ZM32.4 58.2001H7.2V36.6001H32.4V58.2001ZM64.8 58.2001H39.6V51.0001H64.8V58.2001ZM64.8 43.8001H39.6V36.6001H64.8V43.8001ZM64.8 29.4001H7.2V18.6001H64.8V29.4001Z" fill="#0098DA"/>
</svg>
