<svg width="72" height="72" viewBox="0 0 72 72" fill="none" xmlns="http://www.w3.org/2000/svg">
<path d="M36 0C16.128 0 0 16.128 0 36C0 55.8718 16.128 71.9998 36 71.9998C55.872 71.9998 72 55.8718 72 36C72 16.128 55.872 0 36 0ZM62.856 25.632L52.848 29.772C51.012 24.876 47.16 20.988 42.228 19.188L46.368 9.18001C53.928 12.06 59.94 18.072 62.856 25.632ZM36 46.7998C30.024 46.7998 25.2 41.976 25.2 36C25.2 30.024 30.024 25.2 36 25.2C41.976 25.2 46.8 30.024 46.8 36C46.8 41.976 41.976 46.7998 36 46.7998ZM25.668 9.14401L29.88 19.152C24.912 20.952 20.988 24.876 19.152 29.844L9.144 25.668C12.06 18.072 18.072 12.06 25.668 9.14401ZM9.144 46.3318L19.152 42.192C20.988 47.1598 24.876 51.0478 29.844 52.8478L25.632 62.8558C18.072 59.9398 12.06 53.9278 9.144 46.3318ZM46.368 62.8558L42.228 52.8478C47.16 51.0118 51.048 47.1238 52.848 42.156L62.856 46.3678C59.94 53.9278 53.928 59.9398 46.368 62.8558Z" fill="black"/>
</svg>
